<?xml version="1.0" encoding="UTF-8" standalone="no"?>
<!DOCTYPE svg PUBLIC "-//W3C//DTD SVG 1.1//EN" "http://www.w3.org/Graphics/SVG/1.1/DTD/svg11.dtd">
<svg width="100%" height="100%" viewBox="0 0 165 166" version="1.1" xmlns="http://www.w3.org/2000/svg" xmlns:xlink="http://www.w3.org/1999/xlink" xml:space="preserve" xmlns:serif="http://www.serif.com/" style="fill-rule:evenodd;clip-rule:evenodd;stroke-linejoin:round;stroke-miterlimit:2;">
    <g transform="matrix(1,0,0,1,-4185.68,-39.9518)">
        <g transform="matrix(1,0,0,1,-91.4489,21.1828)">
            <g transform="matrix(0.0286051,0,0,0.0286051,4066.2,13.7007)">
                <path d="M10092.5,179.843C9495.79,215.466 8922.07,435.297 8461.32,805.12C8328.2,911.52 8172.58,1061.98 8068.06,1185.25C7711.83,1602.89 7481.69,2107.7 7402.47,2642.98C7377.63,2810.78 7373.88,2868.44 7373.88,3076.55C7373.88,3284.66 7377.63,3342.32 7402.47,3510.12C7490.12,4103.99 7764.33,4660.36 8183.83,5094.87C8908.95,5846.7 9972.48,6146.22 10985.4,5883.73C11081.9,5858.89 11260.1,5798.89 11353.3,5760.46C11448.5,5721.08 11614.9,5638.59 11700.2,5588.9C12030.6,5395.79 12325.9,5133.31 12555.1,4829.57C12667.6,4680.52 12754.8,4538.97 12839.7,4367.88C13002.8,4037.9 13092.3,3720.58 13130.7,3339.03C13142.5,3223.26 13142.5,2929.84 13130.7,2814.07C13108.7,2597.05 13070.7,2403.46 13012.6,2216.44C12796.1,1518.98 12330.6,933.081 11700.2,564.196C11615.8,514.98 11449.4,432.954 11353.3,392.644C11093.7,285.306 10795.6,212.654 10507.3,186.874C10407,177.968 10188.1,174.219 10092.5,179.843Z" style="fill:white;fill-rule:nonzero;"/>
                <g id="logo-merah.svg">
                </g>
                <path d="M10516.7,664.503C10516.7,665.44 10504,673.877 10488.1,683.72C10450.6,706.688 10413.1,744.654 10399,773.246C10383.1,806.057 10381.7,849.179 10394.8,885.271C10404.6,911.051 10413.5,921.363 10500.3,1007.14C10602.9,1107.91 10624.9,1134.63 10648.8,1185.25C10663.4,1216.19 10664.3,1220.88 10664.3,1269.62C10663.8,1315.09 10662.4,1324.93 10650.7,1353.99C10643.2,1371.81 10627.8,1401.34 10616.5,1418.68L10595.9,1451.02L10611.3,1447.74C10678.8,1433.21 10749.2,1382.12 10789.9,1317.9C10805.4,1294 10827.9,1241.5 10831.6,1223.22C10832.1,1218.06 10835.4,1213.38 10838.7,1212.44C10846.6,1209.63 10922.1,1286.5 10961,1336.65C11074,1482.89 11145.7,1656.79 11171,1843.81C11179.4,1908.96 11179.4,2044.89 11170.5,2114.26C11161.6,2181.76 11140.1,2271.75 11118,2331.28C11095.1,2394.09 11046.8,2485.02 11009.8,2537.05C10973.7,2587.67 10902,2665.01 10855.6,2702.98C10756.2,2784.07 10622.1,2852.03 10493.7,2886.25L10452.5,2897.5L10449.2,2868.44C10447.8,2852.97 10442.1,2812.19 10437,2778.91C10426.2,2709.54 10425.3,2679.54 10432.8,2637.36L10437.9,2607.83L10456.7,2624.23C10506.4,2666.42 10589.3,2665.01 10611.3,2621.42C10628.2,2589.08 10617,2528.61 10585.6,2477.05C10567.3,2447.52 10557,2418.46 10559.8,2402.06C10560.7,2393.15 10565.9,2389.87 10586,2384.72C10599.6,2380.97 10628.7,2370.65 10650.3,2361.75C10672.3,2352.84 10695.3,2345.34 10701.8,2345.34C10708.4,2345.34 10713.5,2343.47 10713.5,2341.59C10713.5,2339.25 10705.1,2326.13 10695.3,2311.6C10660.6,2263.32 10600.6,2232.85 10535.4,2230.97L10500.3,2229.57L10494.6,2204.26C10491.8,2190.2 10489,2164.88 10489,2148.01C10488.5,2102.07 10477.8,2071.61 10453.4,2047.7C10430.9,2025.21 10406.5,2017.24 10385,2025.21C10373.2,2029.89 10371.8,2028.96 10362.9,2010.67C10332,1947.87 10295.9,1924.9 10267.3,1950.21C10259.8,1956.77 10257.9,1955.83 10244.8,1943.18C10220,1917.87 10186.2,1917.87 10158.1,1943.18C10143.6,1955.83 10140.8,1956.3 10124.3,1952.08C10075.6,1938.49 10047.9,1952.55 10047.9,1991.46C10047.9,2011.14 10047,2012.55 10036.2,2012.55C9995.92,2012.55 9977.64,2039.27 9987.01,2084.73C9995.92,2128.32 10027.8,2165.35 10069,2181.29C10082.2,2186.45 10082.6,2187.38 10074.2,2192.54C10069.5,2195.35 10052.6,2207.54 10036.7,2219.26C9963.57,2274.1 9857.17,2413.78 9820.15,2503.3C9807.96,2533.3 9804.68,2582.99 9814.52,2592.83C9818.74,2597.05 9814.05,2609.7 9794.36,2647.67C9771.87,2691.73 9769.05,2700.63 9769.05,2726.41C9769.05,2755.47 9771.87,2759.69 9798.58,2770.01C9800.93,2770.94 9780.77,2814.07 9777.96,2814.07C9771.87,2814.07 9703.43,2775.16 9668.28,2751.72C9613.91,2715.16 9571.25,2679.07 9520.63,2625.64C9444.23,2545.49 9389.39,2461.59 9343.92,2355.66C9268.46,2179.88 9251.12,1998.96 9291.43,1816.15C9308.3,1741.16 9330.8,1679.29 9370.64,1597.73C9410.48,1516.64 9442.35,1464.14 9497.19,1391.49C9536.57,1339.46 9635,1227.44 9638.28,1231.19C9639.22,1232.13 9635.47,1251.81 9629.84,1274.78C9614.84,1335.25 9614.84,1431.8 9629.84,1469.3C9643.91,1504.92 9671.56,1535.39 9702.03,1548.98C9723.59,1558.83 9733.9,1560.23 9780.77,1560.23C9822.49,1560.23 9839.83,1558.36 9858.11,1551.33C9915.3,1529.3 9940.14,1498.36 9940.14,1448.21C9940.14,1414.46 9934.51,1391.02 9909.2,1323.53C9875.45,1231.19 9871.7,1158.07 9896.08,1061.51C9917.17,977.61 9949.51,925.581 10023.1,854.335C10129,752.154 10268.7,691.689 10448.7,669.659C10507.8,662.628 10516.7,662.159 10516.7,664.503ZM10406,2286.75C10432.8,2311.6 10414.5,2354.72 10377.5,2354.72C10357.8,2354.25 10347.9,2348.62 10339.5,2332.69C10330.6,2316.28 10332.9,2303.16 10347.5,2288.63C10365.3,2270.82 10388.2,2270.35 10406,2286.75ZM10620.7,756.841C10617.9,799.495 10628.2,820.119 10675.1,870.272C10722,920.425 10735.1,946.205 10740.7,997.765C10745.4,1040.42 10741.7,1085.88 10735.1,1066.2C10732.7,1059.64 10699.9,1022.61 10662,983.703C10585.6,905.426 10567.3,877.772 10567.3,840.742C10567.3,814.963 10579.9,783.558 10603.8,751.216C10613.2,738.561 10620.7,728.249 10621.2,728.249C10621.7,728.249 10621.2,740.905 10620.7,756.841Z" style="fill:rgb(255,0,0);"/>
                <path d="M11859.6,4169.61C11889.1,4179.45 11891,4193.52 11869.9,4238.05C11854.4,4270.39 11851.6,4282.11 11843.2,4351.01C11831,4449.91 11831.4,4457.41 11843.6,4463.97C11848.8,4467.25 11858.2,4468.19 11863.3,4466.31C11868.9,4464.91 11899.4,4433.5 11931.3,4396.47C12024.1,4288.2 12039.1,4268.04 12049.9,4235.7C12055.5,4217.89 12063.5,4203.83 12069.1,4201.02C12075.6,4197.27 12092.5,4198.2 12130.5,4203.36C12159.5,4207.58 12204.1,4213.2 12229.8,4215.55C12255.6,4218.36 12281.4,4223.05 12287.5,4225.86C12310.5,4237.58 12294.1,4263.82 12249.5,4285.39C12229.4,4295.23 12201.7,4324.76 12050.8,4498.65C12002.1,4554.43 11992.7,4567.56 11988.5,4587.24C11986.1,4599.43 11983.8,4614.43 11983.8,4620.52C11983.8,4630.37 12055,4793.48 12102.8,4892.85C12114.1,4915.82 12134.2,4949.57 12147.4,4967.38C12173.1,5002.06 12174.5,5006.28 12165.6,5018.47C12160,5025.97 12153.4,5025.97 12065.3,5012.84C12013.3,5005.34 11966.4,4996.91 11961.3,4994.1C11950,4988 11948.1,4981.44 11944.4,4941.6C11943,4921.91 11934.6,4898.48 11913,4851.6C11880.2,4781.3 11869.4,4770.05 11840.8,4775.2C11799.6,4783.17 11779.4,4828.17 11781.3,4910.19C11781.8,4959.41 11781.8,4960.82 11770.5,4968.32C11760.7,4974.88 11750.8,4975.35 11708.2,4973C11635.5,4968.32 11618.2,4965.5 11608.3,4955.66C11596.1,4943.47 11597.1,4923.79 11611.1,4890.98C11617.7,4874.57 11624.7,4845.51 11627.5,4819.73C11630.4,4795.36 11635.5,4760.67 11639.3,4742.86C11643.5,4724.58 11651.4,4660.36 11658,4599.9C11686.6,4329.45 11688,4305.54 11678.6,4242.73C11672.5,4199.61 11677.7,4173.36 11693.2,4164.92C11708.2,4156.96 11831.9,4160.24 11859.6,4169.61ZM8730.36,4147.58C8751.93,4158.36 8760.36,4185.55 8762.71,4253.98L8764.58,4313.04L8752.39,4321.48C8734.58,4332.73 8702.24,4334.6 8658.18,4327.1C8590.68,4315.38 8506.32,4327.57 8447.26,4358.04C8405.54,4379.13 8356.79,4429.75 8334.76,4474.28C8319.3,4506.62 8316.95,4515.53 8315.08,4553.96C8313.2,4587.71 8315.08,4606.93 8322.58,4639.27C8336.17,4696.46 8345.54,4715.2 8375.07,4744.73C8403.67,4773.33 8426.63,4787.39 8474.44,4807.07C8503.97,4819.26 8514.28,4821.14 8555.06,4821.14C8593.97,4821.61 8605.68,4819.73 8624.43,4811.29C8654.43,4797.23 8666.62,4778.01 8662.87,4750.36C8659.12,4719.42 8645.99,4707.7 8616,4707.7C8578.03,4707.7 8564.91,4711.92 8541,4731.61C8528.81,4741.45 8516.16,4749.89 8512.41,4749.89C8501.16,4749.89 8492.72,4729.73 8479.6,4672.55C8454.29,4560.53 8457.57,4549.28 8515.69,4543.65C8534.91,4541.31 8574.75,4535.68 8604.28,4530.53C8669.9,4518.81 8769.74,4508.5 8779.58,4512.25C8789.89,4516.47 8803.95,4569.9 8812.39,4637.4C8826.45,4745.67 8838.64,4864.73 8838.64,4892.85C8838.64,4919.57 8837.7,4921.91 8825.05,4929.41C8783.8,4953.78 8680.21,4970.66 8571.47,4971.6C8490.38,4972.07 8454.76,4965.97 8404.13,4942.07C8387.73,4934.1 8372.73,4928.01 8370.39,4928.01C8361.01,4928.01 8281.8,4870.82 8255.08,4845.04C8190.86,4782.23 8149.15,4673.02 8149.62,4567.56C8150.09,4471 8191.33,4380.07 8271.49,4299.45C8334.76,4235.23 8386.79,4207.11 8485.22,4182.74C8517.56,4174.77 8566.31,4166.8 8593.97,4164.46C8625.37,4161.64 8653.02,4156.49 8667.56,4150.86C8695.68,4139.15 8712.55,4138.21 8730.36,4147.58ZM9374.39,4095.55C9375.8,4098.84 9378.61,4131.18 9380.01,4166.8C9383.3,4228.2 9382.83,4232.89 9373.92,4243.67C9365.48,4253.98 9360.8,4255.39 9336.89,4254.92C9321.89,4254.92 9300.33,4252.11 9288.61,4248.83C9271.74,4244.14 9257.21,4244.14 9218.31,4248.36C9161.59,4254.92 9144.72,4261.48 9124.09,4284.92L9109.09,4301.79L9111.44,4352.41C9113.78,4397.41 9115.19,4404.91 9124.56,4414.75C9130.65,4421.32 9139.09,4427.41 9143.31,4428.82C9152.68,4431.63 9303.14,4414.75 9339.24,4406.78C9360.33,4402.1 9366.42,4402.1 9376.73,4408.19C9391.73,4416.63 9394.08,4426.47 9398.29,4505.22L9401.58,4566.62L9389.86,4574.12C9379.08,4581.15 9374.39,4581.62 9347.67,4575.99C9322.83,4571.31 9306.89,4571.31 9252.52,4577.4C9215.49,4581.62 9180.81,4588.18 9172.37,4592.4C9150.81,4603.65 9136.75,4643.49 9140.03,4685.68C9142.37,4724.58 9152.68,4737.7 9189.24,4748.02C9212.68,4755.05 9220.18,4755.05 9278.77,4747.55C9313.92,4742.86 9351.89,4735.36 9363.14,4730.67C9387.51,4719.89 9398.29,4719.42 9405.33,4728.33C9408.14,4732.08 9412.83,4762.08 9415.17,4794.89C9421.26,4881.6 9421.73,4880.66 9409.08,4885.35C9386.58,4893.79 9107.69,4923.79 9040.19,4924.72L8972.69,4925.66L8966.13,4912.54C8960.51,4900.82 8960.98,4894.73 8974.1,4852.07C8982.07,4825.82 8988.63,4795.82 8988.63,4785.05C8988.63,4774.26 8983.48,4711.92 8976.91,4646.3C8970.82,4580.68 8960.98,4477.56 8955.82,4417.1C8940.35,4246.95 8940.35,4246.95 8921.14,4218.83C8899.1,4186.49 8892.54,4163.52 8900.51,4146.18C8910.35,4126.02 8934.73,4117.11 8996.6,4111.96C9027.07,4109.61 9090.81,4103.52 9138.62,4098.84C9247.83,4087.59 9370.64,4086.18 9374.39,4095.55ZM11292.4,4103.05C11374.9,4108.21 11464.9,4115.71 11493,4120.4C11551.6,4129.77 11547.4,4120.4 11536.1,4208.52C11532.4,4239.45 11529.1,4266.17 11529.1,4268.04C11529.1,4270.39 11524.9,4276.01 11519.7,4281.17C11506.1,4294.76 11475.7,4293.36 11441.9,4277.89C11418,4267.11 11406.3,4264.76 11359.9,4263.36C11312.6,4261.48 11302.7,4262.42 11284,4270.86C11257.2,4282.57 11244.6,4302.26 11240.8,4336.95C11239.4,4351.48 11237.6,4372.1 11236.2,4382.88C11234.3,4398.82 11236.2,4405.38 11245.5,4416.63C11261,4434.44 11270.4,4435.85 11389.9,4437.72C11517.9,4440.07 11509.9,4433.03 11499.1,4530.53C11494.4,4569.9 11488.8,4604.59 11486,4607.87C11479,4616.77 11457.9,4615.37 11430.7,4604.59C11411.5,4597.09 11394.1,4595.21 11335.1,4594.28C11269,4592.87 11261.9,4593.81 11250.2,4602.24C11231,4616.77 11215.1,4650.52 11211.8,4685.21C11209.4,4714.27 11209.9,4716.14 11224,4732.55C11246,4757.39 11270.4,4763.48 11353.3,4764.42C11397.9,4764.89 11428.8,4763.02 11437.2,4759.73C11452.2,4753.64 11465.8,4756.45 11469.6,4766.3C11474.3,4777.55 11458.3,4911.13 11451.8,4918.16C11442.4,4927.54 11153.7,4916.29 11033.2,4901.76C11009.3,4898.94 10997.1,4884.41 11002.3,4864.73C11004.1,4857.7 11014.5,4834.26 11025.2,4812.7C11048.2,4767.23 11047.7,4770.98 11060.4,4592.87C11065.5,4520.69 11074,4408.19 11078.7,4343.04C11083.8,4277.42 11086.6,4220.7 11085.2,4216.48C11083.8,4211.8 11078.7,4199.14 11073.5,4187.42C11053.8,4144.3 11057.6,4108.68 11083.4,4098.84C11096,4093.68 11123.7,4090.4 11135.4,4092.27C11139.1,4093.21 11209.9,4097.9 11292.4,4103.05ZM9943.89,4065.09C9994.04,4078.21 10027.3,4096.96 10060.1,4130.24C10109.3,4178.99 10137,4248.36 10137.5,4321.95C10138.4,4452.25 10048.9,4538.03 9883.89,4564.28C9859.52,4568.03 9812.65,4572.71 9779.84,4574.12L9719.84,4577.4L9719.84,4611.15C9720.31,4693.18 9729.21,4784.58 9739.52,4814.11C9749.37,4841.29 9749.84,4844.57 9743.27,4856.76C9734.84,4871.29 9728.74,4873.63 9663.12,4883.01C9590.94,4893.79 9567.5,4892.85 9558.6,4880.19C9549.22,4867.07 9549.22,4854.88 9558.6,4829.11C9568.91,4800.51 9567.97,4733.48 9552.97,4447.56L9540.79,4208.98L9527.19,4181.8C9511.73,4151.33 9508.91,4117.58 9520.63,4105.86C9527.66,4099.3 9547.82,4092.27 9605.94,4077.74C9630.31,4071.18 9700.62,4062.27 9785.46,4054.31C9828.58,4050.56 9909.67,4055.71 9943.89,4065.09ZM10687.8,4065.56C10742.1,4079.15 10779.2,4098.84 10811,4131.65C10865.9,4186.49 10888.8,4251.17 10886,4339.76C10884.6,4385.69 10882.7,4394.6 10870.1,4421.78C10851.3,4461.16 10824.1,4491.16 10785.7,4515.53C10740.7,4544.12 10735.6,4568.49 10762.3,4628.02C10771.2,4647.24 10794.2,4700.21 10814.3,4745.2C10842.9,4810.36 10854.1,4830.51 10868.7,4844.1C10888.8,4862.85 10891.2,4871.29 10878.1,4883.01C10870.6,4890.04 10858.8,4890.51 10777.3,4889.1C10665.7,4887.23 10669.5,4889.57 10669,4833.32L10669,4794.42L10617.9,4692.24C10583.2,4623.34 10562.6,4587.24 10554.6,4582.09C10537.8,4570.84 10492.8,4571.31 10480.1,4583.03C10460.9,4599.9 10455.7,4628.49 10455.7,4716.14C10455.7,4792.54 10456.7,4799.11 10467.9,4827.7C10474.5,4844.57 10478.7,4861.45 10477.3,4865.2C10472.6,4877.85 10451.5,4881.13 10370.9,4881.6C10305.3,4881.6 10288.9,4880.66 10279.5,4874.57C10265.4,4865.2 10265.4,4859.57 10280.4,4813.17C10296.8,4762.08 10300.6,4687.55 10301.1,4419.44L10301.1,4203.83L10287,4177.58C10279.5,4162.58 10272,4139.61 10270.1,4125.55C10267.3,4100.71 10267.8,4099.77 10284.2,4085.71C10293.1,4077.27 10308.6,4068.37 10318.4,4065.09C10339,4058.99 10516.2,4051.96 10596.4,4054.31C10630.6,4055.24 10663.8,4059.46 10687.8,4065.56ZM9794.83,4216.02C9731.56,4225.86 9714.68,4246.01 9713.75,4313.98C9712.81,4343.51 9715.15,4353.35 9725.46,4374.91C9732.49,4389.44 9744.68,4405.85 9752.18,4411C9765.3,4420.85 9768.12,4421.32 9819.21,4417.1C9901.7,4410.07 9946.7,4393.66 9961.7,4364.13C9967.32,4353.35 9968.73,4341.63 9967.32,4318.2C9964.04,4274.14 9945.29,4240.86 9915.76,4225.86C9889.99,4212.73 9841.24,4208.98 9794.83,4216.02ZM10535.4,4213.67C10503.1,4222.58 10475.4,4240.39 10469.3,4256.79C10466.5,4263.82 10465.1,4285.39 10466,4305.07C10467.9,4333.2 10470.7,4345.38 10480.6,4362.26C10505.9,4404.91 10540.1,4416.16 10620.3,4407.72C10672.8,4402.57 10698.1,4391.79 10715.4,4368.82C10734.2,4343.51 10724.3,4269.92 10698.1,4237.58C10675.1,4209.45 10595.9,4197.73 10535.4,4213.67ZM10173.6,3127.17C10189,3136.08 10199.3,3153.89 10195.1,3166.55C10193.7,3172.17 10181.1,3188.58 10167.5,3203.11C10144,3227.95 10141.7,3233.57 10086.8,3381.22C10002.9,3605.74 9940.14,3791.35 9934.51,3828.85C9931.23,3851.82 9931.7,3866.82 9934.98,3878.53C9941.08,3898.22 9938.26,3909 9925.61,3915.56C9920.92,3918.38 9885.77,3922.6 9847.8,3924.94C9809.36,3927.28 9761.09,3931.5 9740.46,3934.31C9671.56,3943.22 9651.87,3927.75 9672.03,3881.35L9680.93,3861.19L9661.25,3808.7C9639.22,3749.64 9630.31,3737.45 9612.03,3737.45C9597.03,3737.45 9599.38,3733.23 9573.6,3811.98C9554.85,3870.1 9554.38,3877.13 9565.63,3904.78C9574.07,3925.41 9567.03,3931.97 9528.6,3940.88C9486.41,3950.25 9397.36,3960.09 9354.7,3960.09C9310.64,3960.09 9308.3,3956.81 9316.27,3912.75L9322.36,3880.41L9275.49,3767.92C9218.77,3631.99 9123.15,3411.69 9090.81,3342.78C9067.84,3294.51 9065.97,3292.16 9037.38,3273.41C8988.63,3242.01 8971.76,3210.61 8992.85,3189.51C9006.91,3175.45 9144.25,3147.33 9198.62,3146.86C9231.43,3146.86 9244.55,3158.58 9239.4,3183.89C9230.96,3221.85 9234.24,3230.76 9323.3,3442.15C9372.05,3556.99 9412.83,3653.55 9413.76,3656.83C9417.98,3667.61 9440.48,3661.05 9447.04,3647.45C9450.32,3640.89 9468.6,3570.12 9487.82,3490.9C9506.57,3411.69 9524.38,3345.6 9526.26,3343.72C9536.1,3334.35 9670.62,3313.26 9684.68,3318.41C9695.93,3323.1 9700.62,3335.75 9710.46,3384.97C9730.15,3481.99 9739.52,3521.37 9754.99,3571.05C9772.34,3626.36 9785.46,3645.58 9804.21,3642.77C9814.99,3641.36 9830.93,3599.64 9924.2,3329.66C9964.04,3213.42 9967.79,3197.01 9958.42,3171.23C9952.79,3155.3 9961.23,3132.8 9976.23,3123.42C9988.42,3116.39 10159.5,3119.67 10173.6,3127.17ZM10549.5,3137.01C10556,3141.7 10564.9,3155.3 10569.2,3167.01C10573.4,3178.73 10583.2,3197.95 10590.3,3209.67C10605.3,3233.1 10752,3422.94 10755.7,3422.94C10757.1,3422.94 10767,3409.81 10777.7,3393.88C10789,3377.94 10817.1,3342.78 10840.1,3315.6C10863.5,3288.41 10892.6,3251.38 10904.3,3233.57C10977,3121.55 10964.3,3129.52 11062.3,3136.08C11148.5,3142.17 11168.2,3147.8 11178,3170.76C11183.2,3183.42 11182.3,3188.11 11170.1,3213.89C11162.6,3229.82 11153.2,3246.7 11148.5,3251.38C11143.8,3256.07 11140.1,3260.29 11140.1,3260.76C11140.1,3261.23 11128.4,3388.25 11114.3,3542.93C11100.2,3697.61 11088.5,3834.94 11088.5,3848.07C11088.5,3861.19 11091.8,3879.94 11096,3889.78C11105.4,3913.22 11106.3,3942.75 11097.9,3948.84C11093.2,3952.12 11062.3,3952.59 11013.5,3950.72C10883.7,3946.03 10879.9,3942.75 10907.1,3864.47C10922.1,3821.82 10925.4,3804.01 10931.5,3737.45C10942.7,3611.36 10953,3464.65 10950.7,3462.31C10949.8,3461.37 10935.7,3477.31 10919.8,3497.93C10883.7,3545.74 10845.2,3625.89 10848.5,3647.45C10850.4,3661.05 10849,3662.92 10833.1,3669.95C10820.9,3674.64 10797.4,3677.45 10753.4,3677.92C10677.4,3678.86 10677,3678.86 10671.3,3628.24C10666.2,3585.11 10659.2,3570.12 10612.8,3510.12C10567.8,3451.53 10559.3,3442.15 10549.5,3442.15C10542.4,3442.15 10541.5,3455.28 10538.7,3571.99C10536.8,3643.7 10535.4,3734.64 10535.4,3774.01C10535.4,3841.04 10536.4,3847.13 10547.1,3868.69C10561.7,3897.28 10562.1,3912.75 10548.5,3922.13C10539.6,3928.22 10521.4,3929.63 10444,3929.63C10324.5,3929.63 10327.8,3931.5 10345.6,3878.07C10362.5,3827.44 10366.2,3753.86 10366.2,3461.84L10366.7,3244.82L10355,3217.17C10323.1,3141.23 10350.3,3121.55 10479.2,3126.7C10525.1,3128.58 10540.1,3130.92 10549.5,3137.01Z"/>
                <path d="M9985.14,5263.14C9988.89,5272.52 9979.04,5284.23 9967.79,5284.23C9961.7,5284.23 9958.89,5280.95 9958.89,5273.45C9958.89,5267.36 9960.29,5260.8 9962.17,5259.39C9967.79,5253.3 9982.79,5256.11 9985.14,5263.14ZM10344.6,5125.81C10348.9,5130.96 10352.6,5140.34 10352.6,5146.43C10352.6,5155.34 10350.3,5157.68 10340.9,5157.68C10331.5,5157.68 10329.2,5155.34 10329.2,5145.96C10329.2,5135.18 10327.3,5134.24 10310,5134.24C10291.7,5134.24 10291.2,5134.71 10292.6,5149.24C10293.6,5161.43 10297.8,5166.59 10315.1,5176.43C10350.3,5196.58 10362.5,5232.68 10340.9,5253.77C10317.5,5277.67 10268.2,5265.02 10268.2,5235.02C10268.2,5225.64 10270.6,5223.3 10280,5223.3C10288.4,5223.3 10291.7,5225.64 10291.7,5232.68C10291.7,5244.39 10301.5,5248.61 10317.5,5244.86C10325.9,5242.52 10329.2,5238.77 10329.2,5230.8C10329.2,5212.05 10324,5204.55 10305.7,5195.18C10272,5177.83 10259.3,5149.24 10275.3,5126.28C10287.9,5108.46 10329.6,5107.99 10344.6,5125.81ZM9440.01,5125.34C9444.23,5130.96 9447.98,5140.34 9447.98,5146.43C9447.98,5155.34 9445.64,5157.68 9436.26,5157.68C9426.89,5157.68 9424.54,5155.34 9424.54,5145.49C9424.54,5134.71 9423.14,5133.77 9407.2,5135.18C9391.73,5136.59 9389.39,5138.46 9387.98,5149.71C9386.58,5160.02 9389.39,5163.77 9401.58,5170.8C9430.64,5186.27 9443.76,5201.27 9446.57,5221.89C9448.92,5238.3 9447.51,5242.99 9437.2,5253.3C9412.83,5277.67 9363.61,5265.49 9363.61,5235.02C9363.61,5225.64 9365.95,5223.3 9375.33,5223.3C9383.76,5223.3 9387.05,5225.64 9387.05,5232.68C9387.05,5244.39 9396.89,5248.61 9412.83,5244.86C9422.67,5242.52 9424.54,5239.24 9424.54,5225.18C9424.54,5211.58 9422.2,5207.36 9410.01,5200.8C9372.98,5180.65 9358.45,5158.15 9365.95,5133.77C9373.45,5111.28 9423.14,5105.18 9440.01,5125.34ZM9851.08,5122.53C9851.08,5126.74 9847.8,5130.96 9844.05,5132.37C9838.43,5134.71 9837.02,5145.49 9837.02,5188.61L9837.02,5242.05L9851.08,5242.05C9861.86,5242.05 9865.14,5240.18 9865.14,5232.68C9865.14,5225.64 9868.42,5223.3 9877.33,5223.3C9888.11,5223.3 9889.05,5224.71 9887.64,5242.99L9886.24,5263.14L9850.14,5264.55L9813.58,5265.95L9813.58,5199.86C9813.58,5159.09 9811.71,5134.24 9808.9,5134.24C9806.55,5134.24 9804.21,5130.03 9804.21,5124.87C9804.21,5116.9 9807.49,5115.49 9827.65,5115.49C9845.46,5115.49 9851.08,5117.37 9851.08,5122.53ZM10657.3,5124.87C10657.3,5130.03 10655.4,5134.24 10652.6,5134.24C10649.8,5134.24 10647.9,5155.34 10647.9,5188.15C10647.9,5239.71 10647.4,5242.99 10636.2,5253.77C10622.1,5268.3 10596.4,5270.17 10596.4,5256.58C10596.4,5250.49 10600.6,5247.2 10610.4,5244.86L10624.5,5242.05L10624.5,5188.15C10624.5,5155.34 10622.6,5134.24 10619.8,5134.24C10617.4,5134.24 10615.1,5130.03 10615.1,5124.87C10615.1,5116.9 10618.4,5115.49 10636.2,5115.49C10654,5115.49 10657.3,5116.9 10657.3,5124.87ZM8957.23,5123.46C8961.91,5127.68 8965.19,5137.52 8965.19,5146.9C8965.19,5159.09 8963.32,5162.37 8956.29,5162.37C8949.73,5162.37 8946.45,5158.62 8945.51,5149.24C8944.1,5137.99 8942.23,5136.59 8925.35,5136.59L8906.6,5136.59L8905.2,5185.33C8904.26,5216.74 8905.67,5235.96 8909.42,5240.18C8916.45,5248.61 8934.26,5248.61 8941.76,5239.71C8949.26,5230.8 8965.19,5230.8 8965.19,5239.71C8965.19,5263.14 8914.1,5275.33 8894.89,5256.11C8886.45,5247.67 8885.51,5240.64 8885.51,5189.08C8885.51,5128.62 8887.39,5122.53 8908.95,5114.09C8919.73,5109.87 8947.85,5115.49 8957.23,5123.46ZM10738.8,5149.24C10743.1,5167.99 10748.7,5195.18 10751.5,5209.24C10754.3,5223.3 10759.5,5238.3 10763.2,5242.52C10776.3,5257.52 10771.2,5265.49 10748.7,5265.49C10731.3,5265.49 10727.6,5264.08 10727.6,5257.05C10727.6,5252.36 10729.5,5246.74 10732.3,5243.92C10734.6,5241.58 10735.6,5235.02 10734.2,5228.93C10731.8,5220.96 10727.6,5218.61 10715.4,5218.61C10698.5,5218.61 10697.1,5220.96 10699,5250.02C10700.4,5265.02 10699.9,5265.49 10681.2,5265.49C10664.8,5265.49 10662,5264.08 10662,5255.64C10662,5250.02 10664.8,5242.99 10668.5,5240.18C10672.3,5237.36 10681.7,5210.65 10690.1,5181.11C10698.1,5151.59 10705.6,5124.4 10706.5,5121.12C10707.4,5118.31 10713.5,5115.49 10720.1,5115.49C10730.4,5115.49 10731.8,5118.78 10738.8,5149.24ZM11046.3,5124.87C11046.3,5130.03 11043,5134.24 11039.3,5134.24C11034.1,5134.24 11032.3,5139.87 11032.3,5157.68L11032.3,5181.11L11074.4,5181.11L11074.4,5157.68C11074.4,5139.87 11072.6,5134.24 11067.4,5134.24C11063.7,5134.24 11060.4,5130.03 11060.4,5124.87C11060.4,5116.9 11063.7,5115.49 11083.8,5115.49C11104,5115.49 11107.3,5116.9 11107.3,5124.87C11107.3,5130.03 11105.4,5134.24 11102.6,5134.24C11099.8,5134.24 11097.9,5155.34 11097.9,5187.68C11097.9,5218.61 11099.8,5242.52 11102.6,5244.39C11105.4,5245.8 11107.3,5251.42 11107.3,5256.58C11107.3,5264.08 11104,5265.49 11083.8,5265.49C11063.2,5265.49 11060.4,5264.08 11060.4,5256.11C11060.4,5250.95 11063.7,5245.33 11067.4,5243.92C11072.1,5242.05 11074.4,5234.55 11074.4,5220.02L11074.4,5199.4L11054.8,5200.8C11034.6,5202.21 11034.6,5202.21 11033.2,5221.89C11032.3,5237.83 11033.2,5242.05 11038.8,5242.05C11043.5,5242.05 11046.3,5246.27 11046.3,5253.77C11046.3,5264.55 11044.4,5265.49 11025.2,5265.49C11001.3,5265.49 10991.5,5254.7 11005.5,5244.39C11016.8,5236.43 11017.3,5134.24 11006.5,5134.24C11002.7,5134.24 10999.5,5130.03 10999.5,5124.87C10999.5,5116.9 11002.7,5115.49 11022.9,5115.49C11043,5115.49 11046.3,5116.9 11046.3,5124.87ZM11566.6,5124.87C11566.6,5130.03 11563.3,5134.24 11559.6,5134.24C11548.8,5134.24 11549.3,5236.43 11560.5,5244.39C11574.6,5254.7 11564.7,5265.49 11540.8,5265.49C11521.6,5265.49 11519.7,5264.55 11519.7,5253.77C11519.7,5246.27 11522.5,5242.05 11526.8,5242.05C11532.4,5242.05 11533.8,5233.14 11533.8,5188.15C11533.8,5143.15 11532.4,5134.24 11526.8,5134.24C11523,5134.24 11519.7,5130.03 11519.7,5124.87C11519.7,5116.9 11523,5115.49 11543.2,5115.49C11563.3,5115.49 11566.6,5116.9 11566.6,5124.87ZM10849.5,5141.32L10849.5,5141.23C10849.4,5137.5 10845.2,5134.24 10840.1,5134.24C10831.2,5134.24 10830.7,5137.52 10830.7,5188.15C10830.7,5220.96 10832.6,5242.05 10835.4,5242.05C10838.2,5242.05 10840.1,5247.2 10840.1,5253.77C10840.1,5264.55 10838.2,5265.49 10819,5265.49C10795.1,5265.49 10785.2,5254.7 10799.3,5244.39C10805.9,5239.71 10807.3,5229.86 10807.3,5186.27C10807.3,5137.52 10806.8,5134.24 10797.9,5134.24C10792.8,5134.24 10788.6,5137.5 10788.5,5141.23L10788.5,5141.32C10788.5,5145.05 10784.3,5148.31 10779.2,5148.31C10771.7,5148.31 10769.8,5145.02 10769.8,5131.9L10769.8,5115.49L10868.2,5115.49L10868.2,5131.9C10868.2,5145.02 10866.3,5148.31 10858.8,5148.31C10853.7,5148.31 10849.5,5145.05 10849.5,5141.32ZM9607.34,5122.53C9607.34,5125.81 9604.06,5130.96 9599.84,5133.31C9594.69,5136.12 9593.28,5143.15 9594.22,5158.15L9595.63,5178.77L9611.09,5157.68C9619.53,5145.96 9624.22,5136.12 9621.41,5135.18C9619.06,5134.24 9616.72,5129.56 9616.72,5124.4C9616.72,5116.9 9620,5115.49 9642.5,5115.49C9665,5115.49 9668.28,5116.43 9668.28,5124.87C9668.28,5130.03 9665.47,5134.24 9661.72,5134.24C9657.97,5134.24 9645.31,5146.9 9633.13,5162.37L9611.56,5190.02L9628.91,5213.93C9638.75,5227.52 9651.41,5240.18 9657.5,5242.52C9665,5245.33 9668.28,5249.55 9667.34,5255.17C9666.4,5261.27 9660.31,5263.61 9643.44,5264.55C9621.88,5265.95 9621.41,5265.49 9621.41,5252.83C9621.41,5245.33 9615.78,5231.27 9608.75,5220.96L9595.63,5202.21L9594.22,5220.02C9593.28,5233.14 9595.16,5239.71 9600.78,5243.92C9615.31,5254.7 9605.47,5265.49 9581.57,5265.49C9562.35,5265.49 9560.47,5264.55 9560.47,5253.77C9560.47,5246.27 9563.28,5242.05 9567.5,5242.05C9573.13,5242.05 9574.53,5233.14 9574.53,5188.15C9574.53,5143.15 9573.13,5134.24 9567.5,5134.24C9563.75,5134.24 9560.47,5130.03 9560.47,5124.87C9560.47,5116.9 9563.75,5115.49 9583.91,5115.49C9601.25,5115.49 9607.34,5117.37 9607.34,5122.53ZM10231.7,5177.37C10239.2,5211.58 10246.7,5240.18 10249.5,5241.11C10251.8,5242.05 10254.2,5248.14 10254.2,5254.24C10254.2,5264.08 10252.3,5265.49 10235,5265.49L10216.2,5265.49L10217.6,5242.99C10219,5220.96 10219,5220.96 10203.6,5219.55C10191.4,5218.15 10187.6,5220.02 10184.3,5228.93C10182,5235.02 10182,5241.58 10184.3,5244.39C10186.7,5246.74 10188.6,5252.36 10188.6,5257.05C10188.6,5263.61 10184.8,5265.49 10169.8,5265.49C10148.7,5265.49 10139.3,5254.24 10152.5,5244.39C10156.7,5241.58 10167.9,5211.58 10177.3,5177.37C10194.2,5118.78 10195.6,5115.49 10206.8,5115.49C10218.6,5115.49 10219.5,5117.37 10231.7,5177.37ZM10141.7,5124.87C10151.1,5134.24 10154.8,5166.12 10148.3,5183.46C10144.5,5192.36 10122.5,5204.55 10108.9,5204.55C10100.9,5204.55 10099.5,5207.36 10099.5,5222.83C10099.5,5234.55 10101.8,5242.05 10106.5,5243.92C10110.3,5245.33 10113.6,5250.95 10113.6,5256.11C10113.6,5264.08 10110.8,5265.49 10090.1,5265.49C10069.5,5265.49 10066.7,5264.08 10066.7,5256.11C10066.7,5250.95 10070,5245.33 10073.7,5243.92C10079.3,5241.58 10080.8,5230.8 10080.8,5187.68C10080.8,5137.52 10080.3,5134.24 10071.4,5134.24C10065.3,5134.24 10062,5130.96 10062,5124.87C10062,5116.43 10065.3,5115.49 10097.2,5115.49C10126.2,5115.49 10134.2,5117.37 10141.7,5124.87ZM9754.52,5123.46C9755.93,5128.15 9762.02,5156.27 9768.59,5185.8C9774.68,5215.33 9782.18,5240.18 9784.99,5241.11C9787.8,5242.05 9790.15,5248.14 9790.15,5254.24C9790.15,5264.08 9788.27,5265.49 9771.87,5265.49C9749.84,5265.49 9744.68,5259.39 9752.65,5244.39C9761.09,5228.46 9755.46,5218.61 9738.59,5218.61C9727.81,5218.61 9723.12,5221.43 9720.31,5228.93C9717.96,5235.49 9717.96,5242.05 9720.78,5245.33C9729.68,5256.58 9721.24,5265.49 9701.09,5265.49C9685.62,5265.49 9682.34,5264.08 9682.34,5256.11C9682.34,5251.42 9685.15,5245.33 9688.43,5243.46C9691.72,5241.58 9699.22,5222.83 9705.31,5202.21C9731.09,5109.87 9729.21,5115.49 9740.93,5115.49C9747.49,5115.49 9753.12,5118.78 9754.52,5123.46ZM9944.83,5124.87C9944.83,5130.03 9942.95,5134.24 9940.14,5134.24C9937.33,5134.24 9935.45,5155.34 9935.45,5188.15C9935.45,5220.96 9937.33,5242.05 9940.14,5242.05C9942.95,5242.05 9944.83,5247.2 9944.83,5253.77C9944.83,5264.55 9942.95,5265.49 9923.73,5265.49C9899.83,5265.49 9889.99,5254.7 9904.05,5244.39C9915.3,5236.43 9915.76,5136.59 9904.98,5132.37C9901.23,5130.96 9897.95,5126.74 9897.95,5122.53C9897.95,5117.37 9903.58,5115.49 9921.39,5115.49C9941.54,5115.49 9944.83,5116.9 9944.83,5124.87ZM10465.1,5131.9C10465.1,5146.43 10463.7,5148.31 10453.4,5148.31C10445.9,5148.31 10441.7,5145.49 10441.7,5141.27C10441.7,5137.52 10437.5,5134.24 10432.3,5134.24C10423.4,5134.24 10422.9,5137.52 10422.9,5188.15C10422.9,5233.14 10424.3,5242.05 10430,5242.05C10434.2,5242.05 10437,5246.27 10437,5253.77C10437,5264.55 10435.6,5265.49 10413.5,5265.49C10392.9,5265.49 10390.1,5264.08 10390.1,5256.11C10390.1,5250.95 10393.4,5245.33 10397.1,5243.92C10402.8,5241.58 10404.2,5230.8 10404.2,5187.68C10404.2,5137.52 10403.7,5134.24 10394.8,5134.24C10389.2,5134.24 10385.4,5137.52 10385.4,5141.74C10385.4,5146.43 10382.1,5148.31 10375.1,5147.37C10366.7,5146.43 10363.9,5142.21 10362.9,5130.49L10361.5,5115.49L10465.1,5115.49L10465.1,5131.9ZM9546.41,5134.24C9546.41,5149.71 9545.01,5152.99 9537.04,5152.99C9530.94,5152.99 9527.66,5149.71 9527.66,5143.62C9527.66,5136.12 9524.38,5134.24 9511.26,5134.24L9494.85,5134.24L9494.85,5157.68C9494.85,5175.49 9496.73,5181.11 9501.88,5181.11C9505.63,5181.11 9508.91,5178.77 9508.91,5175.96C9508.91,5173.15 9513.6,5171.74 9519.69,5172.68C9528.13,5173.62 9530.47,5177.37 9531.41,5191.43C9532.82,5207.83 9531.88,5209.24 9521.1,5209.24C9514.54,5209.24 9508.91,5206.9 9508.91,5204.55C9508.91,5201.74 9505.63,5199.86 9501.88,5199.86C9496.73,5199.86 9494.85,5205.49 9494.85,5220.96C9494.85,5242.05 9494.85,5242.05 9511.26,5242.05C9524.38,5242.05 9527.66,5240.18 9527.66,5232.68C9527.66,5226.58 9530.94,5223.3 9537.04,5223.3C9545.01,5223.3 9546.41,5226.58 9546.41,5244.39L9546.41,5265.49L9504.23,5265.49C9462.51,5265.49 9462.04,5265.49 9462.04,5253.77C9462.04,5246.27 9464.85,5242.05 9469.07,5242.05C9474.7,5242.05 9476.1,5233.14 9476.1,5188.61C9476.1,5139.4 9475.63,5135.18 9466.73,5132.84C9461.57,5131.43 9457.35,5127.21 9457.35,5122.99C9457.35,5116.43 9464.38,5115.49 9501.88,5115.49L9546.41,5115.49L9546.41,5134.24ZM9266.58,5178.77C9273.61,5212.05 9281.58,5240.18 9283.93,5241.11C9286.74,5242.05 9288.61,5248.14 9288.61,5254.24C9288.61,5264.08 9286.74,5265.49 9269.4,5265.49L9250.65,5265.49L9252.05,5242.99C9253.46,5220.96 9253.46,5220.96 9237.99,5219.55C9225.81,5218.15 9222.06,5220.02 9218.77,5228.93C9216.43,5235.02 9216.43,5241.58 9218.77,5244.39C9221.12,5246.74 9222.99,5252.36 9222.99,5257.05C9222.99,5263.61 9219.24,5265.49 9204.24,5265.49C9183.15,5265.49 9173.78,5254.24 9186.9,5244.39C9191.12,5241.58 9202.37,5211.11 9212.21,5176.9C9229.09,5117.37 9230.02,5115.03 9241.27,5116.43C9252.52,5117.84 9253.93,5121.12 9266.58,5178.77ZM11407.2,5115.49L11505.7,5115.49L11505.7,5131.9C11505.7,5145.02 11503.8,5148.31 11496.3,5148.31C11491.2,5148.31 11487,5145.05 11486.9,5141.32L11486.9,5141.23C11486.9,5137.5 11482.7,5134.24 11477.5,5134.24C11468.6,5134.24 11468.2,5137.52 11468.2,5188.15C11468.2,5220.96 11470,5242.05 11472.9,5242.05C11475.7,5242.05 11477.5,5247.2 11477.5,5253.77C11477.5,5264.55 11475.7,5265.49 11456.5,5265.49C11437.2,5265.49 11435.4,5264.55 11435.4,5253.77C11435.4,5246.27 11438.2,5242.05 11442.4,5242.05C11448,5242.05 11449.4,5233.14 11449.4,5188.15L11449.4,5134.24L11437.7,5134.24C11430.2,5134.24 11426,5137.06 11426,5141.27C11426,5145.02 11421.8,5148.31 11416.6,5148.31C11409.1,5148.31 11407.2,5145.02 11407.2,5131.9L11407.2,5115.49ZM10521.4,5124.87C10521.4,5130.03 10519.5,5134.24 10516.7,5134.24C10513.9,5134.24 10512,5155.34 10512,5188.15C10512,5220.96 10513.9,5242.05 10516.7,5242.05C10519.5,5242.05 10521.4,5247.2 10521.4,5253.77C10521.4,5264.55 10519.5,5265.49 10500.3,5265.49C10476.4,5265.49 10466.5,5254.7 10480.6,5244.39C10491.8,5236.43 10492.3,5134.24 10481.5,5134.24C10477.8,5134.24 10474.5,5130.03 10474.5,5124.87C10474.5,5116.9 10477.8,5115.49 10497.9,5115.49C10518.1,5115.49 10521.4,5116.9 10521.4,5124.87ZM11371.6,5123.46C11373,5128.15 11378.6,5153.93 11383.8,5181.11C11389.4,5208.3 11396.9,5235.02 11400.7,5240.64C11412.4,5258.92 11409.1,5265.49 11389,5265.49C11366.9,5265.49 11361.8,5259.39 11369.7,5244.39C11378.2,5228.93 11372.6,5218.61 11356.1,5218.61C11339.3,5218.61 11328,5233.61 11336.9,5244.86C11346.8,5256.58 11338.8,5265.49 11318.2,5265.49C11301.3,5265.49 11299.4,5264.55 11299.4,5253.77C11299.4,5247.2 11302.2,5242.05 11305.5,5242.05C11308.8,5242.05 11315.8,5225.64 11321.9,5203.15C11347.2,5112.68 11346.3,5115.49 11358,5115.49C11364.6,5115.49 11370.2,5118.78 11371.6,5123.46ZM11229.1,5122.53C11229.1,5126.74 11225.8,5130.96 11222.1,5132.37C11216.9,5134.24 11215.1,5142.21 11215.1,5158.15L11215.1,5181.11L11257.2,5181.11L11257.2,5157.68C11257.2,5139.87 11255.4,5134.24 11250.2,5134.24C11246.5,5134.24 11243.2,5130.03 11243.2,5124.87C11243.2,5116.9 11246.5,5115.49 11264.3,5115.49C11282.1,5115.49 11285.4,5116.9 11285.4,5124.87C11285.4,5130.03 11283.5,5134.24 11280.7,5134.24C11277.9,5134.24 11276,5155.34 11276,5188.15C11276,5220.96 11277.9,5242.05 11280.7,5242.05C11283.5,5242.05 11285.4,5247.2 11285.4,5253.77C11285.4,5264.55 11283.5,5265.49 11264.3,5265.49C11245.1,5265.49 11243.2,5264.55 11243.2,5253.77C11243.2,5246.27 11246,5242.05 11250.7,5242.05C11256.3,5242.05 11257.2,5237.83 11256.3,5221.89C11254.9,5202.21 11254.9,5202.21 11235.2,5200.8L11215.1,5199.4L11215.1,5219.08C11215.1,5231.74 11217.9,5240.64 11223,5244.39C11237.1,5254.7 11227.3,5265.49 11203.3,5265.49C11184.1,5265.49 11182.3,5264.55 11182.3,5253.77C11182.3,5247.2 11184.6,5242.05 11186.9,5242.05C11189.8,5242.05 11191.6,5220.96 11191.6,5188.15C11191.6,5155.34 11189.8,5134.24 11186.9,5134.24C11184.6,5134.24 11182.3,5130.03 11182.3,5124.87C11182.3,5116.9 11185.5,5115.49 11205.7,5115.49C11223.5,5115.49 11229.1,5117.37 11229.1,5122.53ZM10929.1,5122.53C10929.1,5126.74 10925.9,5130.96 10922.1,5132.37C10916.5,5134.71 10915.1,5145.49 10915.1,5188.15C10915.1,5243.92 10916,5246.74 10938.5,5246.74C10953,5246.74 10957.3,5231.74 10957.3,5181.58C10957.3,5142.68 10955.9,5134.24 10950.2,5134.24C10946.5,5134.24 10943.2,5130.03 10943.2,5124.87C10943.2,5116.9 10946.5,5115.49 10966.6,5115.49C10986.8,5115.49 10990.1,5116.9 10990.1,5124.87C10990.1,5130.03 10986.8,5134.24 10983,5134.24C10977.4,5134.24 10976,5143.62 10976,5190.02C10976,5244.86 10975.5,5246.27 10963.8,5255.64C10947.9,5268.3 10919.8,5268.77 10905.2,5256.58C10894.9,5248.14 10894,5243.92 10892.6,5190.96C10891.6,5159.55 10888.8,5134.24 10886.5,5134.24C10884.1,5134.24 10882.3,5130.03 10882.3,5124.87C10882.3,5116.9 10885.6,5115.49 10905.7,5115.49C10923.5,5115.49 10929.1,5117.37 10929.1,5122.53ZM9149.87,5122.99C9160.65,5133.31 9163.93,5150.65 9157.37,5162.37C9152.68,5170.8 9153.62,5174.09 9160.65,5182.05C9166.28,5188.61 9169.09,5198.93 9169.09,5214.4C9169.09,5233.14 9166.75,5239.71 9155.97,5250.02C9144.72,5261.27 9139.09,5263.14 9108.16,5264.55C9074.88,5266.42 9073,5265.95 9073,5256.58C9073,5250.95 9076.28,5245.33 9080.03,5243.92C9085.66,5241.58 9087.06,5230.8 9087.06,5187.68C9087.06,5143.15 9085.66,5134.24 9080.03,5134.24C9076.28,5134.24 9073,5130.03 9073,5124.87C9073,5116.43 9076.28,5115.49 9107.69,5115.49C9133,5115.49 9144.72,5117.37 9149.87,5122.99ZM9050.5,5123.46C9058,5130.03 9058.94,5138.93 9058.94,5190.96C9058.94,5247.67 9058.47,5251.42 9048.63,5257.99C9033.63,5268.77 9006.44,5267.36 8991.44,5255.64C8979.26,5246.27 8979.26,5244.86 8979.26,5188.61C8979.26,5139.87 8980.66,5130.03 8987.69,5123.93C9003.63,5109.4 9034.57,5108.93 9050.5,5123.46ZM9001.29,5137.06C8999.41,5138.93 8998.01,5162.37 8998.01,5188.61C8998.01,5233.14 8998.94,5237.36 9007.85,5242.05C9013,5245.33 9022.85,5246.27 9028.94,5244.86C9040.66,5241.58 9040.66,5241.58 9039.25,5189.08L9037.85,5136.59L9021.44,5135.18C9012.07,5134.24 9003.16,5135.18 9001.29,5137.06ZM9110.5,5211.58C9110.5,5242.05 9110.5,5242.05 9123.62,5242.05C9141.43,5242.05 9148,5234.08 9148,5213.46C9148,5194.71 9135.81,5181.11 9118.94,5181.11C9111.91,5181.11 9110.5,5185.33 9110.5,5211.58ZM9734.84,5174.09C9727.34,5198.93 9727.81,5199.86 9738.59,5199.86C9748.43,5199.86 9749.37,5194.24 9743.74,5169.4L9740.46,5155.34L9734.84,5174.09ZM10713.5,5173.62C10706.5,5192.83 10707.9,5199.86 10718.2,5199.86C10727.1,5199.86 10727.6,5197.99 10724.8,5182.05C10720.6,5159.55 10719.6,5158.62 10713.5,5173.62ZM11351.9,5174.09C11344.4,5198.93 11344.9,5199.86 11355.7,5199.86C11365.5,5199.86 11366.5,5194.24 11360.8,5169.4L11357.6,5155.34L11351.9,5174.09ZM10200.7,5169.4C10198.9,5176.9 10196.5,5187.21 10195.1,5191.43C10193.2,5197.52 10195.1,5199.86 10202.2,5199.86C10212.5,5199.86 10214.3,5190.02 10207.8,5167.05L10204.5,5155.34L10200.7,5169.4ZM9235.18,5169.4C9233.3,5176.9 9230.96,5187.21 9229.55,5191.43C9227.68,5197.52 9229.55,5199.86 9236.59,5199.86C9246.9,5199.86 9248.77,5190.02 9242.21,5167.05L9238.93,5155.34L9235.18,5169.4ZM10099.5,5157.68C10099.5,5179.24 10100.4,5181.11 10110.3,5181.11C10124.3,5181.11 10132.3,5172.68 10132.3,5157.68C10132.3,5142.68 10124.3,5134.24 10110.3,5134.24C10100.4,5134.24 10099.5,5136.12 10099.5,5157.68ZM9110.5,5148.31C9110.5,5161.43 9111.91,5162.84 9123.62,5161.43C9133.47,5160.49 9136.28,5157.68 9136.28,5148.31C9136.28,5138.93 9133.47,5136.12 9123.62,5135.18C9111.91,5133.77 9110.5,5135.18 9110.5,5148.31Z" style="fill:rgb(255,0,0);"/>
            </g>
        </g>
    </g>
</svg>
